{
  "accessors": [
    {
      "bufferView": 2,
      "componentType": 5126,
      "count": 18432,
      "max": [
        11.202159881591797,
        11.029669761657715,
        5.7175798416137695
      ],
      "min": [
        -10.694339752197266,
        -11.064959526062012,
        -5.2678699493408203
      ],
      "type": "VEC3"
    },
    {
      "bufferView": 2,
      "byteOffset": 221184,
      "componentType": 5126,
      "count": 18432,
      "max": [
        0.99974942207336426,
        0.99983274936676025,
        0.99977678060531616
      ],
      "min": [
        -0.99975013732910156,
        -0.99983131885528564,
        -0.99977678060531616
      ],
      "type": "VEC3"
    },
    {
      "bufferView": 3,
      "componentType": 5126,
      "count": 18432,
      "max": [
        0.99968147277832031,
        0.99922406673431396,
        0.9998432993888855,
        1
      ],
      "min": [
        -0.99968165159225464,
        -0.99922466278076172,
        -0.99984371662139893,
        -1
      ],
      "type": "VEC4"
    },
    {
      "bufferView": 1,
      "componentType": 5126,
      "count": 18432,
      "max": [
        0.99993002414703369,
        0.5
      ],
      "min": [
        7.0000001869630069e-05,
        7.0000001869630069e-05
      ],
      "type": "VEC2"
    },
    {
      "bufferView": 0,
      "componentType": 5125,
      "count": 18432,
      "max": [
        18431
      ],
      "min": [
        0
      ],
      "type": "SCALAR"
    },
    {
      "bufferView": 2,
      "byteOffset": 442368,
      "componentType": 5126,
      "count": 18432,
      "max": [
        11.202159881591797,
        11.029669761657715,
        5.7175798416137695
      ],
      "min": [
        -10.694339752197266,
        -11.064959526062012,
        -5.2678699493408203
      ],
      "type": "VEC3"
    },
    {
      "bufferView": 2,
      "byteOffset": 663552,
      "componentType": 5126,
      "count": 18432,
      "max": [
        0.99974942207336426,
        0.99983274936676025,
        0.99977678060531616
      ],
      "min": [
        -0.99975013732910156,
        -0.99983131885528564,
        -0.99977678060531616
      ],
      "type": "VEC3"
    },
    {
      "bufferView": 3,
      "byteOffset": 294912,
      "componentType": 5126,
      "count": 18432,
      "max": [
        0.99968147277832031,
        0.99922406673431396,
        0.9998432993888855,
        1
      ],
      "min": [
        -0.99968165159225464,
        -0.99922466278076172,
        -0.99984371662139893,
        -1
      ],
      "type": "VEC4"
    },
    {
      "bufferView": 1,
      "byteOffset": 147456,
      "componentType": 5126,
      "count": 18432,
      "max": [
        0.99993002414703369,
        0.5
      ],
      "min": [
        7.0000001869630069e-05,
        7.0000001869630069e-05
      ],
      "type": "VEC2"
    },
    {
      "bufferView": 0,
      "byteOffset": 73728,
      "componentType": 5125,
      "count": 18432,
      "max": [
        18431
      ],
      "min": [
        0
      ],
      "type": "SCALAR"
    },
    {
      "bufferView": 2,
      "byteOffset": 884736,
      "componentType": 5126,
      "count": 18432,
      "max": [
        11.202159881591797,
        11.029669761657715,
        5.7175798416137695
      ],
      "min": [
        -10.694339752197266,
        -11.064959526062012,
        -5.2678699493408203
      ],
      "type": "VEC3"
    },
    {
      "bufferView": 2,
      "byteOffset": 1105920,
      "componentType": 5126,
      "count": 18432,
      "max": [
        0.99974942207336426,
        0.99983274936676025,
        0.99977678060531616
      ],
      "min": [
        -0.99975013732910156,
        -0.99983131885528564,
        -0.99977678060531616
      ],
      "type": "VEC3"
    },
    {
      "bufferView": 3,
      "byteOffset": 589824,
      "componentType": 5126,
      "count": 18432,
      "max": [
        0.99968147277832031,
        0.99922406673431396,
        0.9998432993888855,
        1
      ],
      "min": [
        -0.99968165159225464,
        -0.99922466278076172,
        -0.99984371662139893,
        -1
      ],
      "type": "VEC4"
    },
    {
      "bufferView": 1,
      "byteOffset": 294912,
      "componentType": 5126,
      "count": 18432,
      "max": [
        0.99993002414703369,
        0.5
      ],
      "min": [
        7.0000001869630069e-05,
        7.0000001869630069e-05
      ],
      "type": "VEC2"
    },
    {
      "bufferView": 0,
      "byteOffset": 147456,
      "componentType": 5125,
      "count": 18432,
      "max": [
        18431
      ],
      "min": [
        0
      ],
      "type": "SCALAR"
    },
    {
      "bufferView": 2,
      "byteOffset": 1327104,
      "componentType": 5126,
      "count": 18432,
      "max": [
        11.202159881591797,
        11.029669761657715,
        5.7175798416137695
      ],
      "min": [
        -10.694339752197266,
        -11.064959526062012,
        -5.2678699493408203
      ],
      "type": "VEC3"
    },
    {
      "bufferView": 2,
      "byteOffset": 1548288,
      "componentType": 5126,
      "count": 18432,
      "max": [
        0.99974942207336426,
        0.99983274936676025,
        0.99977678060531616
      ],
      "min": [
        -0.99975013732910156,
        -0.99983131885528564,
        -0.99977678060531616
      ],
      "type": "VEC3"
    },
    {
      "bufferView": 3,
      "byteOffset": 884736,
      "componentType": 5126,
      "count": 18432,
      "max": [
        0.99968147277832031,
        0.99922406673431396,
        0.9998432993888855,
        1
      ],
      "min": [
        -0.99968165159225464,
        -0.99922466278076172,
        -0.99984371662139893,
        -1
      ],
      "type": "VEC4"
    },
    {
      "bufferView": 1,
      "byteOffset": 442368,
      "componentType": 5126,
      "count": 18432,
      "max": [
        0.99993002414703369,
        0.5
      ],
      "min": [
        7.0000001869630069e-05,
        7.0000001869630069e-05
      ],
      "type": "VEC2"
    },
    {
      "bufferView": 0,
      "byteOffset": 221184,
      "componentType": 5125,
      "count": 18432,
      "max": [
        18431
      ],
      "min": [
        0
      ],
      "type": "SCALAR"
    },
    {
      "bufferView": 4,
      "componentType": 5126,
      "count": 500,
      "max": [
        20.833330154418945
      ],
      "min": [
        0.041669998317956924
      ],
      "type": "SCALAR"
    },
    {
      "bufferView": 5,
      "componentType": 5126,
      "count": 500,
      "max": [
        24,
        0,
        0
      ],
      "min": [
        12,
        0,
        0
      ],
      "type": "VEC3"
    },
    {
      "bufferView": 4,
      "byteOffset": 2000,
      "componentType": 5126,
      "count": 500,
      "max": [
        20.833330154418945
      ],
      "min": [
        0.041669998317956924
      ],
      "type": "SCALAR"
    },
    {
      "bufferView": 6,
      "componentType": 5126,
      "count": 500,
      "max": [
        0,
        0,
        1,
        0.5
      ],
      "min": [
        0,
        0,
        -0.99993997812271118,
        -0.0094400001689791679
      ],
      "type": "VEC4"
    },
    {
      "bufferView": 4,
      "byteOffset": 4000,
      "componentType": 5126,
      "count": 2,
      "max": [
        20.833330154418945
      ],
      "min": [
        0.041669998317956924
      ],
      "type": "SCALAR"
    },
    {
      "bufferView": 5,
      "byteOffset": 6000,
      "componentType": 5126,
      "count": 2,
      "max": [
        1,
        1,
        1
      ],
      "min": [
        1,
        1,
        1
      ],
      "type": "VEC3"
    },
    {
      "bufferView": 4,
      "byteOffset": 4008,
      "componentType": 5126,
      "count": 500,
      "max": [
        20.833330154418945
      ],
      "min": [
        0.041669998317956924
      ],
      "type": "SCALAR"
    },
    {
      "bufferView": 5,
      "byteOffset": 6024,
      "componentType": 5126,
      "count": 500,
      "max": [
        12,
        0,
        0
      ],
      "min": [
        0,
        0,
        0
      ],
      "type": "VEC3"
    },
    {
      "bufferView": 4,
      "byteOffset": 6008,
      "componentType": 5126,
      "count": 500,
      "max": [
        20.833330154418945
      ],
      "min": [
        0.041669998317956924
      ],
      "type": "SCALAR"
    },
    {
      "bufferView": 6,
      "byteOffset": 8000,
      "componentType": 5126,
      "count": 500,
      "max": [
        0,
        0,
        -0.5,
        0.86602997779846191
      ],
      "min": [
        0,
        0,
        -0.86602997779846191,
        0.5
      ],
      "type": "VEC4"
    },
    {
      "bufferView": 4,
      "byteOffset": 8008,
      "componentType": 5126,
      "count": 2,
      "max": [
        20.833330154418945
      ],
      "min": [
        0.041669998317956924
      ],
      "type": "SCALAR"
    },
    {
      "bufferView": 5,
      "byteOffset": 12024,
      "componentType": 5126,
      "count": 2,
      "max": [
        1,
        1,
        1
      ],
      "min": [
        1,
        1,
        1
      ],
      "type": "VEC3"
    },
    {
      "bufferView": 4,
      "byteOffset": 8016,
      "componentType": 5126,
      "count": 500,
      "max": [
        20.833330154418945
      ],
      "min": [
        0.041669998317956924
      ],
      "type": "SCALAR"
    },
    {
      "bufferView": 5,
      "byteOffset": 12048,
      "componentType": 5126,
      "count": 500,
      "max": [
        0,
        0,
        0
      ],
      "min": [
        -12,
        0,
        0
      ],
      "type": "VEC3"
    },
    {
      "bufferView": 4,
      "byteOffset": 10016,
      "componentType": 5126,
      "count": 500,
      "max": [
        20.833330154418945
      ],
      "min": [
        0.041669998317956924
      ],
      "type": "SCALAR"
    },
    {
      "bufferView": 6,
      "byteOffset": 16000,
      "componentType": 5126,
      "count": 500,
      "max": [
        0,
        0,
        0,
        1
      ],
      "min": [
        0,
        0,
        -0.5,
        0.86602997779846191
      ],
      "type": "VEC4"
    },
    {
      "bufferView": 4,
      "byteOffset": 12016,
      "componentType": 5126,
      "count": 2,
      "max": [
        20.833330154418945
      ],
      "min": [
        0.041669998317956924
      ],
      "type": "SCALAR"
    },
    {
      "bufferView": 5,
      "byteOffset": 18048,
      "componentType": 5126,
      "count": 2,
      "max": [
        1,
        1,
        1
      ],
      "min": [
        1,
        1,
        1
      ],
      "type": "VEC3"
    },
    {
      "bufferView": 4,
      "byteOffset": 12024,
      "componentType": 5126,
      "count": 500,
      "max": [
        20.833330154418945
      ],
      "min": [
        0.041669998317956924
      ],
      "type": "SCALAR"
    },
    {
      "bufferView": 5,
      "byteOffset": 18072,
      "componentType": 5126,
      "count": 500,
      "max": [
        -12,
        0,
        0
      ],
      "min": [
        -24,
        0,
        0
      ],
      "type": "VEC3"
    },
    {
      "bufferView": 4,
      "byteOffset": 14024,
      "componentType": 5126,
      "count": 500,
      "max": [
        20.833330154418945
      ],
      "min": [
        0.041669998317956924
      ],
      "type": "SCALAR"
    },
    {
      "bufferView": 6,
      "byteOffset": 24000,
      "componentType": 5126,
      "count": 500,
      "max": [
        0,
        0,
        0.5,
        1
      ],
      "min": [
        0,
        0,
        0,
        0.86602997779846191
      ],
      "type": "VEC4"
    },
    {
      "bufferView": 4,
      "byteOffset": 16024,
      "componentType": 5126,
      "count": 2,
      "max": [
        20.833330154418945
      ],
      "min": [
        0.041669998317956924
      ],
      "type": "SCALAR"
    },
    {
      "bufferView": 5,
      "byteOffset": 24072,
      "componentType": 5126,
      "count": 2,
      "max": [
        1,
        1,
        1
      ],
      "min": [
        1,
        1,
        1
      ],
      "type": "VEC3"
    }
  ],
  "animations": [
    {
      "channels": [
        {
          "sampler": 0,
          "target": {
            "node": 7,
            "path": "translation"
          }
        },
        {
          "sampler": 1,
          "target": {
            "node": 7,
            "path": "rotation"
          }
        },
        {
          "sampler": 2,
          "target": {
            "node": 7,
            "path": "scale"
          }
        },
        {
          "sampler": 3,
          "target": {
            "node": 13,
            "path": "translation"
          }
        },
        {
          "sampler": 4,
          "target": {
            "node": 13,
            "path": "rotation"
          }
        },
        {
          "sampler": 5,
          "target": {
            "node": 13,
            "path": "scale"
          }
        },
        {
          "sampler": 6,
          "target": {
            "node": 11,
            "path": "translation"
          }
        },
        {
          "sampler": 7,
          "target": {
            "node": 11,
            "path": "rotation"
          }
        },
        {
          "sampler": 8,
          "target": {
            "node": 11,
            "path": "scale"
          }
        },
        {
          "sampler": 9,
          "target": {
            "node": 5,
            "path": "translation"
          }
        },
        {
          "sampler": 10,
          "target": {
            "node": 5,
            "path": "rotation"
          }
        },
        {
          "sampler": 11,
          "target": {
            "node": 5,
            "path": "scale"
          }
        }
      ],
      "name": "Take 01",
      "samplers": [
        {
          "input": 20,
          "interpolation": "LINEAR",
          "output": 21
        },
        {
          "input": 22,
          "interpolation": "LINEAR",
          "output": 23
        },
        {
          "input": 24,
          "interpolation": "LINEAR",
          "output": 25
        },
        {
          "input": 26,
          "interpolation": "LINEAR",
          "output": 27
        },
        {
          "input": 28,
          "interpolation": "LINEAR",
          "output": 29
        },
        {
          "input": 30,
          "interpolation": "LINEAR",
          "output": 31
        },
        {
          "input": 32,
          "interpolation": "LINEAR",
          "output": 33
        },
        {
          "input": 34,
          "interpolation": "LINEAR",
          "output": 35
        },
        {
          "input": 36,
          "interpolation": "LINEAR",
          "output": 37
        },
        {
          "input": 38,
          "interpolation": "LINEAR",
          "output": 39
        },
        {
          "input": 40,
          "interpolation": "LINEAR",
          "output": 41
        },
        {
          "input": 42,
          "interpolation": "LINEAR",
          "output": 43
        }
      ]
    }
  ],
  "asset": {
    "extras": {
      "author": "ayvlasov (https://sketchfab.com/ayvlasov)",
      "license": "CC-BY-4.0 (http://creativecommons.org/licenses/by/4.0/)",
      "source": "https://sketchfab.com/models/dd5b7efa9d82415a83f2d0348930300e",
      "title": "Snowflakes animation"
    },
    "generator": "Sketchfab-3.19.2",
    "version": "2.0"
  },
  "bufferViews": [
    {
      "buffer": 0,
      "byteLength": 294912,
      "byteOffset": 0,
      "name": "floatBufferViews",
      "target": 34963
    },
    {
      "buffer": 0,
      "byteLength": 589824,
      "byteOffset": 294912,
      "byteStride": 8,
      "name": "floatBufferViews",
      "target": 34962
    },
    {
      "buffer": 0,
      "byteLength": 1769472,
      "byteOffset": 884736,
      "byteStride": 12,
      "name": "floatBufferViews",
      "target": 34962
    },
    {
      "buffer": 0,
      "byteLength": 1179648,
      "byteOffset": 2654208,
      "byteStride": 16,
      "name": "floatBufferViews",
      "target": 34962
    },
    {
      "buffer": 0,
      "byteLength": 16032,
      "byteOffset": 3833856,
      "name": "floatBufferViews"
    },
    {
      "buffer": 0,
      "byteLength": 24096,
      "byteOffset": 3849888,
      "byteStride": 12,
      "name": "floatBufferViews"
    },
    {
      "buffer": 0,
      "byteLength": 32000,
      "byteOffset": 3873984,
      "byteStride": 16,
      "name": "floatBufferViews"
    }
  ],
  "buffers": [
    {
      "byteLength": 3905984,
      "uri": "scene.bin"
    }
  ],
  "images": [
    {
      "uri": "textures/MaterialFlake_baseColor.png"
    },
    {
      "uri": "textures/MaterialFlake_emissive.png"
    }
  ],
  "materials": [
    {
      "alphaMode": "BLEND",
      "doubleSided": true,
      "emissiveFactor": [
        1,
        1,
        1
      ],
      "emissiveTexture": {
        "index": 1,
        "texCoord": 0
      },
      "name": "MaterialFlake",
      "pbrMetallicRoughness": {
        "baseColorFactor": [
          1,
          1,
          1,
          0.72999999999999998
        ],
        "baseColorTexture": {
          "index": 0,
          "texCoord": 0
        },
        "metallicFactor": 0,
        "roughnessFactor": 0.59999999999999998
      }
    }
  ],
  "meshes": [
    {
      "name": "Snowflakes_0",
      "primitives": [
        {
          "attributes": {
            "NORMAL": 1,
            "POSITION": 0,
            "TANGENT": 2,
            "TEXCOORD_0": 3
          },
          "indices": 4,
          "material": 0,
          "mode": 4
        }
      ]
    },
    {
      "name": "Snowflakes.003_0",
      "primitives": [
        {
          "attributes": {
            "NORMAL": 6,
            "POSITION": 5,
            "TANGENT": 7,
            "TEXCOORD_0": 8
          },
          "indices": 9,
          "material": 0,
          "mode": 4
        }
      ]
    },
    {
      "name": "Snowflakes.001_0",
      "primitives": [
        {
          "attributes": {
            "NORMAL": 11,
            "POSITION": 10,
            "TANGENT": 12,
            "TEXCOORD_0": 13
          },
          "indices": 14,
          "material": 0,
          "mode": 4
        }
      ]
    },
    {
      "name": "Snowflakes.002_0",
      "primitives": [
        {
          "attributes": {
            "NORMAL": 16,
            "POSITION": 15,
            "TANGENT": 17,
            "TEXCOORD_0": 18
          },
          "indices": 19,
          "material": 0,
          "mode": 4
        }
      ]
    }
  ],
  "nodes": [
    {
      "children": [
        1
      ],
      "name": "RootNode (gltf orientation matrix)",
      "rotation": [
        -0.70710678118654746,
        -0,
        -0,
        0.70710678118654757
      ]
    },
    {
      "children": [
        2
      ],
      "name": "RootNode (model correction matrix)"
    },
    {
      "children": [
        3,
        5,
        7,
        9,
        11,
        13
      ],
      "name": "Root"
    },
    {
      "children": [
        4
      ],
      "matrix": [
        -0.29086000000000006,
        0.95517000000000007,
        -0.05519000000000001,
        0,
        -0.77110000000000001,
        -0.19988000000000003,
        0.60452000000000006,
        0,
        0.56639000000000006,
        0.21839000000000003,
        0.7946700000000001,
        0,
        4.0762500000000008,
        1.00545,
        5.9038600000000008,
        1
      ],
      "name": "Lamp"
    },
    {
      "name": "Lamp"
    },
    {
      "children": [
        6
      ],
      "name": "Snowflakes",
      "translation": [
        -12,
        0,
        0
      ]
    },
    {
      "mesh": 0,
      "name": "Snowflakes_0"
    },
    {
      "children": [
        8
      ],
      "name": "Snowflakes.003",
      "rotation": [
        0,
        0,
        1,
        0
      ],
      "translation": [
        24,
        0,
        0
      ]
    },
    {
      "mesh": 1,
      "name": "Snowflakes.003_0"
    },
    {
      "children": [
        10
      ],
      "name": "Sun"
    },
    {
      "name": "Sun"
    },
    {
      "children": [
        12
      ],
      "name": "Snowflakes.001",
      "rotation": [
        0,
        0,
        -0.49999803304672241,
        0.86602658033370972
      ]
    },
    {
      "mesh": 2,
      "name": "Snowflakes.001_0"
    },
    {
      "children": [
        14
      ],
      "name": "Snowflakes.002",
      "rotation": [
        0,
        0,
        -0.86602658033370972,
        0.49999803304672241
      ],
      "translation": [
        12,
        0,
        0
      ]
    },
    {
      "mesh": 3,
      "name": "Snowflakes.002_0"
    }
  ],
  "samplers": [
    {
      "magFilter": 9729,
      "minFilter": 9987,
      "wrapS": 10497,
      "wrapT": 10497
    }
  ],
  "scene": 0,
  "scenes": [
    {
      "name": "OSG_Scene",
      "nodes": [
        0
      ]
    }
  ],
  "textures": [
    {
      "sampler": 0,
      "source": 0
    },
    {
      "sampler": 0,
      "source": 1
    }
  ]
}

